<svg xmlns="http://www.w3.org/2000/svg" width="228" height="260"><g fill="#FFF"><path d="M95.506 105.98v5.518H43.539v-5.518h51.967zM82.275 72.279H49.073V66.89h39.754v6.299c0 7.857 0 16.102-2.163 28.504l-6.614-.713c2.226-11.559 2.226-20.193 2.226-27.791v-.91zM142.27 88.578c-9.605 1.947-18.256 2.531-26.652 2.531h-4.643V64.488h6.552V85.59c7.505-.129 15.456-.713 23.979-2.402l.764 5.39zm11.64 19.543c0 7.145-7.57 11.625-19.211 11.625s-19.209-4.48-19.209-11.625c0-7.271 7.568-11.688 19.209-11.688s19.211 4.417 19.211 11.688zm-6.488 0c0-4.023-4.898-6.361-12.723-6.361-7.822 0-12.721 2.338-12.721 6.361 0 3.896 4.898 6.299 12.721 6.299 7.824 0 12.723-2.402 12.723-6.299zm5.914-33.373v6.947h7.953v5.52h-7.953v8.441h-6.613V60.982h6.613v8.246h7.953v5.52h-7.953zM173.449 123.445c4.324-1.818 6.869-5.063 6.932-8.895-.254.064-.445.064-.699.064-2.607 0-4.896-1.688-4.896-4.805 0-2.924 2.289-4.805 5.088-4.805 3.561 0 5.662 3.051 5.662 8.051 0 6.816-3.883 12.076-10.434 14.609l-1.653-4.219z"/></g><g fill="#FFF"><path d="M61.446 169.852c-8.206 0-14.058-5.064-14.058-12.531 0-7.402 5.852-12.467 14.058-12.467 8.142 0 13.93 5.064 13.93 12.467 0 7.466-5.788 12.531-13.93 12.531zm0-1.883c6.806 0 11.83-4.676 11.83-10.648 0-5.908-5.024-10.584-11.83-10.584-6.87 0-11.958 4.676-11.958 10.584 0 5.972 5.088 10.648 11.958 10.648zm-4.771 28.894h34.349v1.949H54.64V185.76h31.932v-8.506H54.449v-1.949h34.157v12.34H56.675v9.218zm41.091-40.713v1.949h-9.159v14.025h-2.1V142.45h2.1v13.699h9.159zM144.656 170.826c-9.986 1.559-17.684 1.947-27.097 1.947h-4.135v-14.998h22.708v-10.066h-22.898v-1.945h24.934v13.959H115.46v11.104h2.1c9.286 0 17.046-.389 26.843-2.014l.253 2.013zm-25.315 9.026h34.157v18.961h-34.157v-18.961zm2.035 17.011h30.087v-15.129h-30.087v15.129zm41.345-36.621h-9.223v16.43h-2.1v-34.221h2.1v15.844h9.223v1.947z"/></g><path fill="#FFF" d="M228 258.266H0V0h228v258.266zM4.035 254.23h219.93V4.035H4.035V254.23z"/></svg>